<svg xmlns="http://www.w3.org/2000/svg" width="800" height="520" viewBox="0 0 800 520">
<defs>
  <linearGradient id="g" x1="0" x2="1" y1="0" y2="1">
    <stop offset="0%" stop-color="#25c29f"/>
    <stop offset="45%" stop-color="#9fe8f3"/>
    <stop offset="100%" stop-color="#fff4d4"/>
  </linearGradient>
  <linearGradient id="sand" x1="0" x2="1">
    <stop offset="0%" stop-color="#ffffff" stop-opacity="0.95"/>
    <stop offset="100%" stop-color="#fef3cf" stop-opacity="0.92"/>
  </linearGradient>
</defs>
<rect width="100%" height="100%" fill="url(#g)"/>
<circle cx="680.0" cy="93.6" r="41.6" fill="#ffffff" opacity="0.32"/>
<circle cx="104.0" cy="114.4" r="26.0" fill="#ffffff" opacity="0.22"/>
<path d="M0 374.4 C 144.0 343.2, 264.0 436.8, 400.0 400.40000000000003 S 656.0 338.0, 800 405.6 L 800 520 L 0 520 Z" fill="url(#sand)"/>
<path d="M0 405.6 C 136.0 374.4, 248.0 457.6, 400.0 431.59999999999997 S 656.0 374.4, 800 442.0 L 800 520 L 0 520 Z" fill="#ffffff" opacity="0.95"/>
<g opacity="0.85">
<rect x="48.0" y="57.2" rx="30" ry="30" width="176.0" height="46.8" fill="#ffc637"/>
<text x="136.0" y="88.4" font-family="Arial, Helvetica, sans-serif" font-size="20.8" font-weight="700" text-anchor="middle" fill="#ffffff">Galería editable</text>
</g>
<text x="48.0" y="171.6" font-family="Arial, Helvetica, sans-serif" font-size="62.4" font-weight="900" fill="#083b61">Nuevo Nayarit · Foto 4</text>
<text x="48.0" y="218.4" font-family="Arial, Helvetica, sans-serif" font-size="26.0" font-weight="700" fill="#0c7288">Ideal para familia, grupos y quienes buscan comodidad de resort.</text>
<text x="48.0" y="468.0" font-family="Arial, Helvetica, sans-serif" font-size="17.68" font-weight="700" fill="#0d5466">Reemplaza esta imagen en assets para poner tu foto real</text>
</svg>