<svg xmlns="http://www.w3.org/2000/svg" width="1200" height="760" viewBox="0 0 1200 760">
<defs>
  <linearGradient id="g" x1="0" x2="1" y1="0" y2="1">
    <stop offset="0%" stop-color="#0ea8cf"/>
    <stop offset="45%" stop-color="#9fe8f3"/>
    <stop offset="100%" stop-color="#fff4d4"/>
  </linearGradient>
  <linearGradient id="sand" x1="0" x2="1">
    <stop offset="0%" stop-color="#ffffff" stop-opacity="0.95"/>
    <stop offset="100%" stop-color="#fef3cf" stop-opacity="0.92"/>
  </linearGradient>
</defs>
<rect width="100%" height="100%" fill="url(#g)"/>
<circle cx="1020.0" cy="136.79999999999998" r="60.800000000000004" fill="#ffffff" opacity="0.32"/>
<circle cx="156.0" cy="167.2" r="38.0" fill="#ffffff" opacity="0.22"/>
<path d="M0 547.1999999999999 C 216.0 501.6, 396.0 638.4, 600.0 585.2 S 983.9999999999999 494.0, 1200 592.8000000000001 L 1200 760 L 0 760 Z" fill="url(#sand)"/>
<path d="M0 592.8000000000001 C 204.00000000000003 547.1999999999999, 372.0 668.8, 600.0 630.8 S 983.9999999999999 547.1999999999999, 1200 646.0 L 1200 760 L 0 760 Z" fill="#ffffff" opacity="0.95"/>
<g opacity="0.85">
<rect x="72.0" y="83.6" rx="30" ry="30" width="264.0" height="68.39999999999999" fill="#ffc637"/>
<text x="204.00000000000003" y="129.20000000000002" font-family="Arial, Helvetica, sans-serif" font-size="30.400000000000002" font-weight="700" text-anchor="middle" fill="#ffffff">El Caribe Mexicano</text>
</g>
<text x="72.0" y="250.8" font-family="Arial, Helvetica, sans-serif" font-size="91.2" font-weight="900" fill="#083b61">Cozumel</text>
<text x="72.0" y="319.2" font-family="Arial, Helvetica, sans-serif" font-size="38.0" font-weight="700" fill="#0c7288">Isla, snorkel y buceo</text>
<text x="72.0" y="684.0" font-family="Arial, Helvetica, sans-serif" font-size="25.840000000000003" font-weight="700" fill="#0d5466">Reemplaza esta imagen en assets para poner tu foto real</text>
</svg>